<?xml version="1.0" encoding="UTF-8" standalone="no" ?>
<!DOCTYPE svg PUBLIC "-//W3C//DTD SVG 1.1//EN" "http://www.w3.org/Graphics/SVG/1.1/DTD/svg11.dtd">
<svg xmlns="http://www.w3.org/2000/svg" xmlns:xlink="http://www.w3.org/1999/xlink" version="1.1" width="200" height="200" viewBox="0 0 500 500" xml:space="preserve">
<desc>Created with Fabric.js 4.6.0</desc>
<defs>
</defs>
<g transform="matrix(3.23 0 0 0.9 276.47 194.4)" id="04gEL8zx3AxLshPpB3-L_"  >
<path style="stroke: rgb(223,245,213); stroke-width: 0; stroke-dasharray: none; stroke-linecap: butt; stroke-dashoffset: 0; stroke-linejoin: miter; stroke-miterlimit: 4; fill: rgb(153,160,255); fill-rule: nonzero; opacity: 1;" vector-effect="non-scaling-stroke"  transform=" translate(0, 0)" d="M -32.09243 -32.09243 L 32.09242 -32.09243 L 32.09242 32.09242 L -32.09243 32.09242 z" stroke-linecap="round" />
</g>
<g transform="matrix(4.38 0 0 1.05 238.03 80.54)" id="w0pL00mNOtDWUHwBn1Mh1"  >
<path style="stroke: rgb(223,245,213); stroke-width: 0; stroke-dasharray: none; stroke-linecap: butt; stroke-dashoffset: 0; stroke-linejoin: miter; stroke-miterlimit: 4; fill: rgb(255,255,255); fill-rule: nonzero; opacity: 1;" vector-effect="non-scaling-stroke"  transform=" translate(0, 0)" d="M -32.09243 -32.09243 L 32.09242 -32.09243 L 32.09242 32.09242 L -32.09243 32.09242 z" stroke-linecap="round" />
</g>
<g transform="matrix(1.45 0 0 2.85 88.79 110.48)" id="J6jqgJR26EQ0IJI9tg_UV"  >
<path style="stroke: rgb(36,207,233); stroke-width: 0; stroke-dasharray: none; stroke-linecap: butt; stroke-dashoffset: 0; stroke-linejoin: miter; stroke-miterlimit: 4; fill: rgb(255,255,255); fill-rule: nonzero; opacity: 1;" vector-effect="non-scaling-stroke"  transform=" translate(0, 0)" d="M -22.32143 -14.01425 C -22.32143 -18.60218 -15.01118 -22.32143 -5.99353 -22.32143 L 5.99353 -22.32143 L 5.99353 -22.32143 C 15.01118 -22.32143 22.32143 -18.60218 22.32143 -14.014249999999999 L 22.32143 14.014260000000002 L 22.32143 14.014260000000002 C 22.32143 18.60219 15.01118 22.321440000000003 5.99353 22.321440000000003 L -5.99353 22.321440000000003 L -5.99353 22.321440000000003 C -15.01118 22.321440000000003 -22.32143 18.602190000000004 -22.32143 14.014260000000002 z" stroke-linecap="round" />
</g>
<g transform="matrix(1.03 0 0 -1.88 89.29 163.37)" id="iW69SfHM7SES4eVqPi9ZC"  >
<path style="stroke: rgb(223,245,213); stroke-width: 0; stroke-dasharray: none; stroke-linecap: butt; stroke-dashoffset: 0; stroke-linejoin: miter; stroke-miterlimit: 4; fill: rgb(255,255,255); fill-rule: nonzero; opacity: 1;" vector-effect="non-scaling-stroke"  transform=" translate(0, 0)" d="M -32.09243 -32.09243 L 32.09242 -32.09243 L 32.09242 32.09242 L -32.09243 32.09242 z" stroke-linecap="round" />
</g>
<g transform="matrix(1.5 0 0 1.38 437.81 168.69)" id="fFgLjk8XljtS0dQDTHUwJ"  >
<path style="stroke: none; stroke-width: 1; stroke-dasharray: none; stroke-linecap: butt; stroke-dashoffset: 0; stroke-linejoin: miter; stroke-miterlimit: 4; fill: rgb(153,160,255); fill-rule: nonzero; opacity: 1;" vector-effect="non-scaling-stroke"  transform=" translate(-40, -40)" d="M 0 0 L 80 80 L 0 80 L 0 0 z" stroke-linecap="round" />
</g>
<g transform="matrix(-3.23 0 0 -0.9 223.08 293.63)" id="B3_2vNLW8quNG4bFrYDfT"  >
<path style="stroke: rgb(223,245,213); stroke-width: 0; stroke-dasharray: none; stroke-linecap: butt; stroke-dashoffset: 0; stroke-linejoin: miter; stroke-miterlimit: 4; fill: rgb(153,160,255); fill-rule: nonzero; opacity: 1;" vector-effect="non-scaling-stroke"  transform=" translate(0, 0)" d="M -32.09243 -32.09243 L 32.09242 -32.09243 L 32.09242 32.09242 L -32.09243 32.09242 z" stroke-linecap="round" />
</g>
<g transform="matrix(-4.38 0 0 -1.05 261.51 407.49)" id="gLRCemMR7738ByJ9MpUEV"  >
<path style="stroke: rgb(223,245,213); stroke-width: 0; stroke-dasharray: none; stroke-linecap: butt; stroke-dashoffset: 0; stroke-linejoin: miter; stroke-miterlimit: 4; fill: rgb(255,255,255); fill-rule: nonzero; opacity: 1;" vector-effect="non-scaling-stroke"  transform=" translate(0, 0)" d="M -32.09243 -32.09243 L 32.09242 -32.09243 L 32.09242 32.09242 L -32.09243 32.09242 z" stroke-linecap="round" />
</g>
<g transform="matrix(-1.45 0 0 -2.85 410.78 377.55)" id="LCjYUH4SQK3QBsW1eQZFQ"  >
<path style="stroke: rgb(36,207,233); stroke-width: 0; stroke-dasharray: none; stroke-linecap: butt; stroke-dashoffset: 0; stroke-linejoin: miter; stroke-miterlimit: 4; fill: rgb(255,255,255); fill-rule: nonzero; opacity: 1;" vector-effect="non-scaling-stroke"  transform=" translate(0, 0)" d="M -22.32143 -14.01425 C -22.32143 -18.60218 -15.01118 -22.32143 -5.99353 -22.32143 L 5.99353 -22.32143 L 5.99353 -22.32143 C 15.01118 -22.32143 22.32143 -18.60218 22.32143 -14.014249999999999 L 22.32143 14.014260000000002 L 22.32143 14.014260000000002 C 22.32143 18.60219 15.01118 22.321440000000003 5.99353 22.321440000000003 L -5.99353 22.321440000000003 L -5.99353 22.321440000000003 C -15.01118 22.321440000000003 -22.32143 18.602190000000004 -22.32143 14.014260000000002 z" stroke-linecap="round" />
</g>
<g transform="matrix(-1.03 0 0 1.88 410.28 324.66)" id="3R74153k8wfz6jd68uAds"  >
<path style="stroke: rgb(223,245,213); stroke-width: 0; stroke-dasharray: none; stroke-linecap: butt; stroke-dashoffset: 0; stroke-linejoin: miter; stroke-miterlimit: 4; fill: rgb(255,255,255); fill-rule: nonzero; opacity: 1;" vector-effect="non-scaling-stroke"  transform=" translate(0, 0)" d="M -32.09243 -32.09243 L 32.09242 -32.09243 L 32.09242 32.09242 L -32.09243 32.09242 z" stroke-linecap="round" />
</g>
<g transform="matrix(-1.5 0 0 -1.38 61.75 319.36)" id="tJ9FCNrkNKn6ebiuljEwk"  >
<path style="stroke: none; stroke-width: 1; stroke-dasharray: none; stroke-linecap: butt; stroke-dashoffset: 0; stroke-linejoin: miter; stroke-miterlimit: 4; fill: rgb(153,160,255); fill-rule: nonzero; opacity: 1;" vector-effect="non-scaling-stroke"  transform=" translate(-40, -40)" d="M 0 0 L 80 80 L 0 80 L 0 0 z" stroke-linecap="round" />
</g>
</svg>